<svg width="48" height="48" viewBox="0 0 48 48" fill="none" xmlns="http://www.w3.org/2000/svg">
<path fill-rule="evenodd" clip-rule="evenodd" d="M14.8701 5.00055L14.9032 5H29.0322C29.5042 5 29.9119 5.32996 30.0102 5.79154C30.1086 6.25313 29.8709 6.72065 29.44 6.91309C29.3186 6.96731 29.1941 7.02271 29.0668 7.07936C26.7466 8.11206 23.4908 9.56122 20.776 11.8487C17.9437 14.2352 15.7723 17.4729 15.9028 22.0587C16.0382 26.8157 18.3227 29.6695 20.924 30.9041C23.584 32.1666 26.5697 31.7646 28.3257 30.0116C30.1148 28.2257 30.5906 25.3077 29.7712 22.7787C28.9652 20.2913 26.978 18.3787 24 18.3787C23.4477 18.3787 23 17.931 23 17.3787C23 16.8265 23.4477 16.3787 24 16.3787C28.0219 16.3787 30.6594 19.0317 31.6738 22.1622C32.6747 25.251 32.1667 29.0033 29.7387 31.4271C27.2777 33.8838 23.3441 34.2665 20.0664 32.7109C16.73 31.1274 14.0585 27.5603 13.9036 22.1156C13.7509 16.7492 16.3375 12.9733 19.4873 10.3193C21.1076 8.95399 22.8958 7.86956 24.5596 7H14.9205C13.6476 7.04606 11.6704 7.59887 10.0195 9.13329C8.39197 10.646 6.99995 13.1886 6.99995 17.3787V32.2785C7.03081 33.7211 7.55016 35.9194 8.99408 37.7361C10.4066 39.5133 12.7599 41 16.6451 41H32.2753C33.6941 40.8602 35.8704 40.1465 37.6869 38.4431C39.4914 36.7507 41 34.0276 41 29.7384V14.6505C40.9701 13.8869 40.6815 12.7068 39.9263 11.7294C39.1984 10.7871 37.998 9.97668 35.9831 9.94264C33.9753 9.90872 33.1256 10.6982 32.7816 11.4026C32.5918 11.7911 32.5232 12.2155 32.5478 12.5965C32.5733 12.9922 32.6925 13.2626 32.7869 13.3829C33.4609 14.2424 34.0591 14.2634 34.3682 14.1711C34.749 14.0573 35 13.7134 35 13.3569C35 12.8047 35.4477 12.3569 36 12.3569C36.5522 12.3569 37 12.8047 37 13.3569C37 14.6435 36.1236 15.734 34.9407 16.0874C33.6861 16.4622 32.2844 15.9833 31.2131 14.6171C30.8074 14.0998 30.596 13.4094 30.5519 12.7251C30.5069 12.0261 30.6298 11.2511 30.9844 10.525C31.7292 8.9999 33.3795 7.89837 36.0168 7.94292C38.6471 7.98736 40.4144 9.08976 41.509 10.5066C42.5711 11.8813 42.9613 13.4969 42.9994 14.5976L43 14.6322V29.7384C43 34.5523 41.2827 37.8128 39.055 39.9019C36.8579 41.9624 34.2216 42.8309 32.4134 42.9959C32.3832 42.9986 32.3529 43 32.3225 43H16.6451C12.169 43 9.23197 41.2497 7.4284 38.9805C5.65941 36.7549 5.03592 34.1034 5.00015 32.3088L4.99976 32.2888L4.99995 17.3787C4.99995 12.7013 6.57568 9.60363 8.65787 7.66834C10.7098 5.76116 13.1747 5.05659 14.8701 5.00055Z" fill="#E9DED5"/>
</svg>
