<svg width="48" height="48" viewBox="0 0 48 48" fill="none" xmlns="http://www.w3.org/2000/svg">
<path fill-rule="evenodd" clip-rule="evenodd" d="M5.49434 9.51183C6.3261 7.96736 8.09214 6.9539 10.3161 7.00165C12.6597 7.05197 14.2321 8.3986 14.9295 10.185C15.6053 11.9162 15.4609 14.0321 14.567 15.815C13.7872 17.3702 12.2869 18.3269 10.8897 18.9022C9.88482 19.3159 8.85405 19.5655 8.00282 19.697V39H17.3509V17.9038C17.3509 17.3515 17.7986 16.9038 18.3509 16.9038H25.8008C26.3531 16.9038 26.8008 17.3515 26.8008 17.9038V19.1893C29.5397 17.1179 33.0401 16.4833 36.078 17.1962C39.8739 18.087 43 21.1078 43 26.0057V40C43 40.5523 42.5523 41 42 41H34.2037C33.6514 41 33.2037 40.5523 33.2037 40V29.0338C33.2037 26.6285 32.6511 25.5046 32.1096 25.0432C31.6278 24.6328 30.8735 24.5273 29.7676 24.97C28.6531 25.4161 27.961 25.9972 27.5173 26.808C27.0541 27.6545 26.8008 28.8616 26.8008 30.6705V40C26.8008 40.5523 26.3531 41 25.8008 41C25.2485 41 24.8008 40.5523 24.8008 40V30.6705C24.8008 28.7148 25.0673 27.119 25.7628 25.848C26.4778 24.5412 27.5833 23.6901 29.0243 23.1133C30.4738 22.533 32.1234 22.4275 33.4066 23.5208C34.6301 24.5632 35.2037 26.4469 35.2037 29.0338V39H41V26.0057C41 22.147 38.6253 19.8483 35.6211 19.1433C32.5615 18.4253 28.9036 19.388 26.5639 22.1509C26.2928 22.4711 25.8506 22.588 25.4566 22.4436C25.0627 22.2992 24.8008 21.9242 24.8008 21.5047V18.9038H19.3509V40C19.3509 40.5523 18.9032 41 18.3509 41H7.00282C6.45054 41 6.00282 40.5523 6.00282 40V18.804C6.00282 18.2766 6.41251 17.8398 6.9389 17.8061C7.69838 17.7574 8.9448 17.54 10.1283 17.0528C11.3285 16.5586 12.3115 15.8513 12.7791 14.9186C13.4445 13.5917 13.5167 12.0658 13.0664 10.9123C12.6376 9.81385 11.7412 9.03271 10.2732 9.00119C8.68555 8.9671 7.67954 9.67224 7.25522 10.4601C6.83933 11.2324 6.88861 12.2389 7.72818 13.1235C8.10836 13.5241 8.0918 14.1571 7.69119 14.5373C7.29059 14.9174 6.65764 14.9009 6.27746 14.5003C4.86474 13.0117 4.65413 11.072 5.49434 9.51183Z" fill="#E9DED5"/>
</svg>
