<svg width="48" height="48" viewBox="0 0 48 48" fill="none" xmlns="http://www.w3.org/2000/svg">
<path fill-rule="evenodd" clip-rule="evenodd" d="M6.65407 9.33961C7.63096 8.82338 8.88114 8.8616 9.87124 9.69365L9.22788 10.4592L9.87124 9.69365L19.7318 17.9802C22.2488 20.0954 25.7512 20.0954 28.2682 17.9802L38.1288 9.69365C39.1189 8.8616 40.369 8.82338 41.3459 9.33961C42.3138 9.85109 43 10.8923 43 12.165V35.8391C43 37.5105 41.7283 39 40 39L8 39C6.27167 39 5 37.5105 5 35.8391L5 32C5 31.4477 5.44771 31 6 31C6.55228 31 7 31.4477 7 32L7 35.8391C7 36.5545 7.5192 37 8 37L40 37C40.4808 37 41 36.5545 41 35.8391V12.165C41 11.6395 40.7291 11.2757 40.4115 11.1079C40.1029 10.9448 39.7391 10.9528 39.4155 11.2248L29.5549 19.5114C26.2941 22.2517 21.706 22.2517 18.4451 19.5114L8.58452 11.2248C8.2609 10.9528 7.89714 10.9448 7.58852 11.1079C7.27091 11.2757 7 11.6395 7 12.165L7 26C7 26.5523 6.55228 27 6 27C5.44772 27 5 26.5523 5 26L5 12.165C5 10.8923 5.68617 9.85109 6.65407 9.33961Z" fill="#E9DED5"/>
</svg>
